<?xml version="1.0" standalone="no"?><!DOCTYPE svg PUBLIC "-//W3C//DTD SVG 1.1//EN" "http://www.w3.org/Graphics/SVG/1.1/DTD/svg11.dtd"><svg t="1707636289041" class="icon" viewBox="0 0 1024 1024" version="1.1" xmlns="http://www.w3.org/2000/svg" p-id="7782" xmlns:xlink="http://www.w3.org/1999/xlink" width="200" height="200"><path d="M180.869 368.127l316.84 140.849a35.263 35.263 0 0 0 28.622 0l316.8-140.849c12.74-5.629 20.92-18.238 20.92-32.139 0-13.949-8.18-26.558-20.92-32.188l-316.8-140.808c-9.124-4.046-19.539-4.046-28.622 0L180.869 303.8c-12.699 5.63-20.92 18.238-20.92 32.188 0 13.901 8.221 26.51 20.92 32.139z m633.69 111.715L512.041 614.281 209.522 479.803c-17.816-7.881-38.598 0.129-46.47 17.896-7.921 17.775 0.08 38.557 17.856 46.479l316.85 140.799a34.627 34.627 0 0 0 14.282 3.055c4.906 0 9.773-1.031 14.29-3.006l316.8-140.848c17.736-7.922 25.738-28.703 17.816-46.43-7.87-17.735-28.651-25.778-46.387-17.906z m0 176.002L512.041 790.322 209.522 655.844c-17.816-7.913-38.598 0.09-46.47 17.864-7.921 17.769 0.08 38.599 17.856 46.472l316.85 140.848a35.387 35.387 0 0 0 14.282 3.014c4.906 0 9.773-1.04 14.29-3.014l316.8-140.809c17.736-7.953 25.738-28.702 17.816-46.469-7.87-17.736-28.651-25.738-46.387-17.906z" fill="#0F6CF9" p-id="7783"></path></svg>