<svg t="1707636753595" class="icon" viewBox="0 0 1024 1024" version="1.1" xmlns="http://www.w3.org/2000/svg" p-id="10586" width="200" height="200"><path d="M512 512m-436.148148 0a436.148148 436.148148 0 1 0 872.296296 0 436.148148 436.148148 0 1 0-872.296296 0Z" fill="#FC8A2E" p-id="10587"></path><path d="M512 75.851852v872.296296C271.113481 948.148148 75.851852 752.886519 75.851852 512S271.113481 75.851852 512 75.851852z" fill="#FFA249" p-id="10588"></path><path d="M713.007407 392.229926a83.437037 83.437037 0 0 1 83.437037 83.437037v72.666074a83.437037 83.437037 0 0 1-83.437037 83.437037H467.095704v44.904296h164.655407V713.007407a83.437037 83.437037 0 0 1-83.437037 83.437037h-72.628148a83.437037 83.437037 0 0 1-83.437037-83.437037v-119.732148c0-32.502519 23.438222-59.06963 55.352889-60.871111l3.451259-0.094815h121.893926c54.746074 0 101.394963-43.273481 103.651556-97.488592l0.075851-4.096v-38.494815H713.007407z m-140.060444 322.939259a20.309333 20.309333 0 1 0 0 40.63763 20.309333 20.309333 0 0 0 0-40.63763zM548.333037 227.555556a83.437037 83.437037 0 0 1 83.437037 83.437037v119.732148c0 32.502519-23.457185 59.06963-55.371852 60.871111l-3.451259 0.094815h-121.893926c-54.746074 0-101.394963 43.273481-103.651556 97.488592l-0.075851 4.096-0.018963 38.475852H310.992593a83.437037 83.437037 0 0 1-83.437037-83.437037v-72.628148a83.437037 83.437037 0 0 1 83.437037-83.437037h245.911703v-44.942222h-164.67437V310.992593a83.437037 83.437037 0 0 1 83.437037-83.437037h72.666074z m-97.28 40.637629a20.309333 20.309333 0 1 0 0 40.63763 20.309333 20.309333 0 0 0 0-40.63763z" fill="#FFFFFF" p-id="10589"></path></svg>